<svg width="90" height="90" viewBox="0 0 90 90" fill="none" xmlns="http://www.w3.org/2000/svg">
<path d="M0 78.3953C0 84.805 5.19574 90 11.6047 90H78.3949C84.805 90 90 84.8043 90 78.3953V11.6051C90 5.19504 84.8043 0 78.3953 0H11.6051C5.19504 0 0 5.19574 0 11.6047V78.3949V78.3953Z" fill="#563D7C"/>
<path d="M37.3212 39.8102V27.065H48.5399C49.6086 27.065 50.6387 27.154 51.6308 27.3322C52.6229 27.5101 53.5008 27.8279 54.264 28.286C55.0269 28.7441 55.6376 29.3801 56.0957 30.1939C56.5534 31.0082 56.7826 32.0513 56.7826 33.3229C56.7826 35.6126 56.0957 37.2663 54.7218 38.2838C53.3482 39.3015 51.5928 39.8102 49.4557 39.8102H37.3212V39.8102ZM25.3389 17.7539V72.2461H51.7454C54.1877 72.2461 56.5664 71.9409 58.8814 71.3303C61.1965 70.7196 63.257 69.7785 65.0633 68.5065C66.8693 67.2346 68.3068 65.5935 69.3752 63.5839C70.444 61.5741 70.978 59.1954 70.978 56.4479C70.978 53.0388 70.1511 50.1261 68.4977 47.7095C66.844 45.2925 64.338 43.6008 60.9799 42.634C63.4222 41.464 65.2669 39.9628 66.5135 38.1312C67.7598 36.2995 68.3831 34.0102 68.3831 31.2623C68.3831 28.7184 67.9634 26.5816 67.1238 24.8516C66.2843 23.1219 65.1013 21.7354 63.5748 20.6923C62.0487 19.6492 60.217 18.8986 58.0799 18.4409C55.9431 17.9828 53.5771 17.7539 50.9822 17.7539H25.3389V17.7539ZM37.3212 62.935V47.9763H50.3715C52.9664 47.9763 55.0526 48.574 56.63 49.77C58.2071 50.9657 58.9961 52.9625 58.9961 55.761C58.9961 57.1859 58.7542 58.3559 58.2708 59.2717C57.7874 60.1875 57.1388 60.9128 56.3245 61.4468C55.5107 61.9812 54.5692 62.3626 53.5008 62.5918C52.432 62.8204 51.313 62.935 50.1427 62.935H37.3212V62.935Z" fill="white"/>
</svg>
