<svg width="90" height="90" viewBox="0 0 90 90" fill="none" xmlns="http://www.w3.org/2000/svg">
<path d="M44.9944 0.936707C20.1488 0.936707 0 21.1642 0 46.1167C0 66.0742 12.8925 83.0055 30.78 88.9848C33.03 89.4011 33.8513 88.0061 33.8513 86.808C33.8513 85.7336 33.8119 82.893 33.7894 79.1242C21.2738 81.8523 18.63 73.0661 18.63 73.0661C16.5881 67.8461 13.635 66.4567 13.635 66.4567C9.54563 63.6555 13.9387 63.7117 13.9387 63.7117C18.4556 64.0323 20.8294 68.3692 20.8294 68.3692C24.8456 75.2711 31.365 73.2798 33.93 72.1211C34.335 69.2017 35.4994 67.2105 36.7875 66.0798C26.7975 64.938 16.29 61.0623 16.29 43.7542C16.29 38.8211 18.045 34.788 20.925 31.6267C20.4581 30.4848 18.9169 25.8892 21.3638 19.6736C21.3638 19.6736 25.1438 18.4586 33.7388 24.303C37.3275 23.3017 41.175 22.8011 45.0056 22.7842C48.825 22.8067 52.6781 23.3017 56.2725 24.3086C64.8619 18.4642 68.6362 19.6792 68.6362 19.6792C71.0887 25.9005 69.5475 30.4905 69.0862 31.6323C71.9719 34.7936 73.71 38.8267 73.71 43.7598C73.71 61.113 63.1912 64.9323 53.1675 66.0517C54.7819 67.4467 56.2219 70.203 56.2219 74.4161C56.2219 80.4573 56.1656 85.3286 56.1656 86.808C56.1656 88.0173 56.9756 89.4236 59.2594 88.9792C77.1187 82.9942 90 66.0686 90 46.1167C90 21.1642 69.8513 0.936707 44.9944 0.936707Z" fill="white"/>
</svg>
