<svg width="89" height="89" viewBox="0 0 89 89" fill="none" xmlns="http://www.w3.org/2000/svg">
<g clip-path="url(#clip0)">
<path d="M5.60392 2.94626L11.3802 76.8433C11.4669 77.953 12.218 78.8993 13.2791 79.2357L43.674 88.8723C44.2115 89.0426 44.7886 89.0426 45.3261 88.8723L75.721 79.2357C76.7821 78.8993 77.5332 77.953 77.6199 76.8433L83.3962 2.94626C83.5204 1.35751 82.2648 0 80.6713 0H8.32898C6.73552 0 5.47989 1.35751 5.60392 2.94626ZM68.5833 25.874H30.9382L32.0743 36.3505H67.7645L65.4298 66.2176L44.5002 72.8532L23.5705 66.2176L22.3508 50.6138H33.3363V58.2677L44.7937 61.3427L56.1827 58.2677L57.0662 46.0696H21.9955L19.6671 16.2809H69.333L68.5833 25.874Z" fill="#FC490B"/>
</g>
<defs>
<clipPath id="clip0">
<rect width="89" height="89" fill="white"/>
</clipPath>
</defs>
</svg>
