<svg width="136" height="71" viewBox="0 0 136 71" fill="none" xmlns="http://www.w3.org/2000/svg">
<path d="M68 70.586C105.555 70.586 136 54.7848 136 35.293C136 15.8012 105.555 0 68 0C30.4446 0 0 15.8012 0 35.293C0 54.7848 30.4446 70.586 68 70.586Z" fill="#8993BE"/>
<path fill-rule="evenodd" clip-rule="evenodd" d="M19.0958 56.1901L26.5482 18.575H43.7804C51.2322 19.0395 54.9584 22.7542 54.9584 29.2561C54.9584 40.4013 46.1094 46.9026 38.1911 46.4381H29.8085L27.9454 56.1901H19.0958ZM31.671 39.4727L34 25.5409H40.0547C43.315 25.5409 45.6434 26.934 45.6434 29.7201C45.1781 37.6151 41.4519 39.0082 37.2603 39.4727H31.6716H31.671ZM53.227 46.4381L60.6789 8.82349H69.5284L67.6654 18.575H76.0485C83.5008 19.0395 86.2952 22.7542 85.3639 27.3985L82.1037 46.4381H72.7887L76.049 29.2561C76.5144 26.934 76.5144 25.5409 73.2546 25.5409H66.2682L62.0766 46.4381H53.227V46.4381ZM81.5071 56.1901L88.9589 18.575H106.192C113.644 19.0395 117.37 22.7542 117.37 29.2561C117.37 40.4013 108.521 46.9026 100.603 46.4381H92.2192L90.3561 56.1901H81.5071V56.1901ZM94.0818 39.4727L96.4108 25.5409H102.466C105.726 25.5409 108.055 26.934 108.055 29.7201C107.589 37.6151 103.863 39.0082 99.6716 39.4727H94.0823H94.0818Z" fill="#232531"/>
</svg>
